PathFileType	4	(X/Y/Z)	C:/Users/opensim2020/Desktop/walking_exp_matlab/subject03_walking11_straight_02.trc	
DataRate	CameraRate	NumFrames	NumMarkers	Units	OrigDataRate	OrigDataStartFrame	OrigNumFrames	
100.00	100.00	4	46	mm	100.00	1932	357	
Frame#	Time	LFHD			RFHD			LBHD			RBHD			C7			T10			CLAV			STRN			RBAK			LSHO			LUPA			LELB			LFRM			LWRA			LWRB			LFIN			RSHO			RUPA			RELB			RFRM			RWRA			RWRB			RFIN			LASI			RASI			LPSI			RPSI			LTHI			LKNE			LTIB			LANK			LHEE			LTOE			RTHI			RKNE			RTIB			RANK			RHEE			RTOE			*39			*40			*41			*42			*43			*44			*45			
		X1	Y1	Z1	X2	Y2	Z2	X3	Y3	Z3	X4	Y4	Z4	X5	Y5	Z5	X6	Y6	Z6	X7	Y7	Z7	X8	Y8	Z8	X9	Y9	Z9	X10	Y10	Z10	X11	Y11	Z11	X12	Y12	Z12	X13	Y13	Z13	X14	Y14	Z14	X15	Y15	Z15	X16	Y16	Z16	X17	Y17	Z17	X18	Y18	Z18	X19	Y19	Z19	X20	Y20	Z20	X21	Y21	Z21	X22	Y22	Z22	X23	Y23	Z23	X24	Y24	Z24	X25	Y25	Z25	X26	Y26	Z26	X27	Y27	Z27	X28	Y28	Z28	X29	Y29	Z29	X30	Y30	Z30	X31	Y31	Z31	X32	Y32	Z32	X33	Y33	Z33	X34	Y34	Z34	X35	Y35	Z35	X36	Y36	Z36	X37	Y37	Z37	X38	Y38	Z38	X39	Y39	Z39	X40	Y40	Z40	X41	Y41	Z41	X42	Y42	Z42	X43	Y43	Z43	X44	Y44	Z44	X45	Y45	Z45	X46	Y46	Z46	

134	1.330	-958.67236	155.50616	1606.53760	-1091.48096	161.09105	1608.89294	-957.05597	287.46933	1576.61194	-1088.13733	288.08704	1578.17163	-1023.23309	330.99823	1411.99988	-1024.04675	371.38858	1098.35376	-1011.99030	212.65741	1332.06604	-1005.16595	172.03822	1167.51685	-1127.81482	377.72830	1237.95056	-860.28723	273.92462	1369.27502	-793.38977	310.00818	1172.26782	-781.24854	316.86795	1049.28174	-778.14948	293.41370	921.33472	-806.54779	268.67322	804.61597	-761.69604	301.81555	808.02051	-768.64685	282.72714	725.63800	-1174.24573	238.46031	1356.50574	-1249.53589	193.40445	1142.14233	-1259.67920	150.46510	1038.20703	-1251.62634	93.43022	914.24329	-1205.12402	43.60749	833.86389	-1253.30090	61.69461	819.09729	-1235.60840	18.12427	761.15540	-901.85284	207.67709	931.69421	-1138.88110	203.54733	933.30176	-952.50940	369.65860	950.65466	-1102.00244	364.80264	966.36700	-852.44629	205.56723	630.83295	-896.10638	137.54294	467.53458	-895.50244	132.02457	276.40701	-927.74915	77.58868	70.54079	-970.21387	103.44866	28.23847	-940.81921	-76.36657	67.80191	-1174.39111	293.76633	642.89532	-1137.60840	312.94162	464.06573	-1135.24011	398.80893	290.13504	-1080.14087	469.68027	85.15928	-1028.87781	517.35382	62.94392	-1060.06482	333.02145	30.00643	-1013.20721	233.07866	1673.36487																		 
135	1.340	-958.23993	148.52696	1605.97034	-1091.01428	154.31783	1608.42151	-956.45062	280.37088	1575.70313	-1087.43384	281.23743	1577.27185	-1022.29767	323.71301	1411.24695	-1022.67242	363.91864	1097.63635	-1011.54907	205.30290	1331.36389	-1004.86053	164.65341	1166.80981	-1126.53699	370.89951	1237.12280	-859.61188	266.00894	1368.59521	-792.80896	302.06561	1171.49036	-780.89703	308.94269	1048.44531	-778.05756	285.90536	920.35217	-806.61206	260.91360	803.65442	-761.75488	294.70029	807.08984	-769.02118	276.07883	724.48267	-1173.75012	231.88115	1355.74915	-1248.81665	187.06529	1141.23169	-1258.86243	144.04115	1037.35693	-1250.33398	86.29095	913.79962	-1203.49170	35.88019	834.00653	-1251.55969	54.09806	818.83356	-1233.58691	10.09679	761.25592	-901.62811	199.94707	930.67261	-1138.61047	197.01776	932.56335	-951.14252	361.98105	949.97461	-1100.64111	357.98987	965.68787	-852.97357	198.77626	629.48181	-897.75616	131.72672	466.10336	-896.40094	123.42549	275.77878	-928.12225	65.74458	70.67177	-970.34064	91.13470	27.72337	-941.17609	-88.28556	69.88316	-1174.03589	288.46545	642.60602	-1137.49207	308.44638	463.76727	-1135.08545	396.08566	290.58762	-1080.18689	469.07999	86.28436	-1028.83203	516.87561	64.47240	-1059.94177	332.98865	29.81514	-1012.59003	226.42014	1672.66272																		 
136	1.350	-957.75031	141.56789	1605.52673	-1090.49512	147.53593	1608.00476	-955.85144	273.50092	1575.00281	-1086.66931	274.33405	1576.48364	-1021.45703	316.46182	1410.48877	-1021.37360	356.38965	1096.91748	-1011.07953	197.88805	1330.67615	-1004.58478	157.19203	1166.09375	-1125.13330	364.02914	1236.30042	-858.81537	257.95761	1367.87500	-792.19012	293.94061	1170.70569	-780.30261	301.09116	1047.48755	-777.92468	278.16260	919.35516	-806.38086	253.74960	802.75415	-761.78613	287.29507	806.12964	-769.65070	269.69067	723.42212	-1173.14001	225.17883	1354.89001	-1248.04187	180.74788	1140.27832	-1257.98987	137.69258	1036.47144	-1248.99219	79.40254	913.22986	-1201.96448	28.42878	833.97650	-1249.81445	46.81608	818.35364	-1231.67358	2.36754	761.11786	-901.14819	191.77126	929.82947	-1138.35657	190.35268	931.81573	-949.70728	354.12180	949.31506	-1099.24255	351.14371	965.00616	-853.60480	191.57788	628.18475	-899.12146	125.26766	464.81650	-897.21008	115.29858	275.14563	-928.46765	55.79391	70.36759	-970.65570	80.73175	27.10548	-941.62970	-98.35407	70.84126	-1173.65198	282.98193	642.30780	-1137.18640	303.96243	463.52399	-1134.94385	393.25311	291.12238	-1080.23035	468.37009	87.50276	-1028.77039	516.36206	66.19862	-1060.01709	332.86652	29.74490	-1012.09204	219.76057	1672.05298																		 
137	1.360	-957.17047	134.64330	1605.10132	-1089.97290	140.74603	1607.58521	-955.08105	266.27487	1574.12732	-1086.06079	267.44559	1575.73389	-1020.50555	309.10880	1409.82556	-1019.99115	348.85126	1096.22534	-1010.55005	190.38525	1330.09106	-1004.30060	149.60327	1165.42981	-1123.72961	357.11328	1235.52637	-858.00708	249.79059	1367.15039	-791.54193	285.64093	1169.91614	-779.82880	292.64102	1046.49438	-777.80664	270.20544	918.36145	-806.59070	246.57301	801.57855	-761.74060	279.72125	805.13275	-769.84625	262.47528	722.29724	-1172.55493	218.49904	1354.14600	-1247.24451	174.49751	1139.31775	-1257.02197	131.42024	1035.53125	-1247.68640	72.78107	912.55408	-1200.45447	21.29597	833.71381	-1248.21570	39.88679	817.80920	-1229.84680	-4.90538	760.86609	-900.70026	183.51619	928.90369	-1138.21411	183.50691	931.10687	-948.23364	346.20374	948.73083	-1097.79773	344.06863	964.37628	-854.29132	184.02888	627.01630	-900.33270	118.85321	463.62201	-897.86395	107.78110	274.36337	-929.30981	47.59228	69.79281	-971.18213	72.68781	26.38985	-942.39038	-106.63907	70.64345	-1173.28723	277.30670	642.05603	-1137.05969	299.16800	463.29327	-1134.86169	390.25021	291.71729	-1080.23608	467.56866	88.80584	-1028.74780	515.78741	68.07227	-1060.19202	332.81537	29.55047	-1011.47552	213.03130	1671.44946																		 
